Coordinates
version=1
nRows=19
nColumns=36
inDegrees=yes

Units are S.I. units (second, meters, Newtons, ...)
If the header above contains a line with 'inDegrees', this indicates whether rotational values are in degrees (yes) or radians (no).

endheader
time	pelvis_tilt	pelvis_list	pelvis_rotation	pelvis_tx	pelvis_ty	pelvis_tz	hip_flexion_r	hip_adduction_r	hip_rotation_r	knee_angle_r	knee_angle_r_beta	ankle_angle_r	subtalar_angle_r	mtp_angle_r	hip_flexion_l	hip_adduction_l	hip_rotation_l	knee_angle_l	knee_angle_l_beta	ankle_angle_l	subtalar_angle_l	mtp_angle_l	lumbar_extension	lumbar_bending	lumbar_rotation	arm_flex_r	arm_add_r	arm_rot_r	elbow_flex_r	pro_sup_r	arm_flex_l	arm_add_l	arm_rot_l	elbow_flex_l	pro_sup_l
      9.42000000	    -16.25129163	     -3.44112067	     -0.89155988	     -0.22544395	      0.85406321	     -0.51314182	     35.24791784	      9.95713332	      8.79287296	     32.56490775	      0.56836486	     11.06971793	    -23.46632435	     -7.49999987	     38.36055881	    -25.31813892	    -10.19267279	     34.19729844	      0.59685545	      4.10130873	      9.99732590	     -7.49999987	    -12.96118419	      9.73026886	     -2.49865331	     21.16955624	    -22.45538355	      7.18113454	    117.84227493	     98.09911602	     18.08155128	     -0.92572234	     11.63030914	     92.68660065	    106.09560784
      9.43000000	    -16.01457057	     -3.51911467	     -0.70545411	     -0.22342949	      0.85620531	     -0.51372358	     34.33494639	      9.80366856	      8.61252422	     31.55670292	      0.55076837	     10.86379018	    -23.24661466	     -7.49999987	     37.60604517	    -25.17101299	    -10.30650753	     33.42527783	      0.58338115	      3.94612457	     10.14117221	     -7.49999987	    -12.56424269	      9.93243658	     -2.69577670	     20.68573885	    -22.57993826	      7.65723566	    117.74285564	     98.14463140	     17.64408232	     -1.41474808	     12.57501175	     92.57740027	    106.01177852
      9.44000000	    -15.64393945	     -3.54365101	     -0.77456799	     -0.22119928	      0.85851388	     -0.51367930	     33.24157300	      9.81155786	      8.78156187	     30.51873288	      0.53265237	     10.61994049	    -23.08546842	     -7.49999987	     36.49078490	    -25.19534031	    -10.85193704	     32.57356749	      0.56851600	      3.78823305	     10.37986972	     -7.49999987	    -12.36757159	      9.99112298	     -2.65209406	     20.23070600	    -22.64884388	      8.17442622	    117.58546054	     98.20065416	     17.24474339	     -1.96685714	     13.53306431	     92.48775474	    105.87101696
      9.45000000	    -15.29871658	     -3.53921794	     -1.01468324	     -0.21875287	      0.86061141	     -0.51317336	     32.16215215	      9.95454187	      9.28443345	     29.51358384	      0.51510921	     10.10463144	    -23.43213093	     -7.49999987	     35.29065453	    -25.39927617	    -11.85944625	     31.74884450	      0.55412187	      3.87458104	     11.16851994	     -7.49999987	    -12.14239119	      9.96801841	     -2.39646740	     19.60138397	    -22.68658990	      8.62713084	    117.61546254	     96.75455681	     16.81418709	     -2.47278037	     14.51224007	     92.61712488	    104.10511959
      9.46000000	    -14.98636601	     -3.54766841	     -1.10246960	     -0.21651187	      0.86253793	     -0.51302140	     31.16372128	     10.00699889	      9.65566386	     28.55844605	      0.49843891	      9.61390509	    -23.75633444	     -7.49999987	     34.25221233	    -25.44792713	    -12.53207099	     30.97206557	      0.54056452	      3.88027547	     11.73636779	     -7.49999987	    -11.89235133	     10.00840427	     -2.31474808	     19.07739595	    -22.77548854	      9.12270607	    117.57561692	     95.64420566	     16.40630501	     -2.98710981	     15.52022809	     92.70485940	    102.82748912
      9.47000000	    -14.63661018	     -3.52396673	     -0.99673209	     -0.21447523	      0.86447901	     -0.51345709	     30.20188979	      9.85859557	      9.71773768	     27.70670827	      0.48357328	      9.38370230	    -23.67808008	     -7.49999987	     33.29597350	    -25.26499454	    -12.85847561	     30.20092281	      0.52710554	      3.78378188	     11.99693974	     -7.49999987	    -11.71356362	     10.08224988	     -2.41383161	     18.62894787	    -22.91177095	      9.63250054	    117.51542000	     95.19222846	     16.04655170	     -3.44142873	     16.47884351	     92.78601445	    102.00402386
      9.48000000	    -14.30949283	     -3.43801912	     -0.87422104	     -0.21243062	      0.86633367	     -0.51398526	     29.33684027	      9.60940669	      9.63840601	     26.99113144	      0.47108411	      9.38514584	    -23.31621055	     -7.49999987	     32.34668334	    -24.93004505	    -12.96016044	     29.37288073	      0.51265348	      3.54986299	     11.71510577	     -7.49999987	    -11.51122909	     10.09284064	     -2.58236743	     18.17369940	    -22.99721360	     10.00572876	    117.08132748	     98.56201462	     15.64405393	     -3.88172812	     17.13987724	     92.58339772	    103.95366941
      9.49000000	    -13.89684855	     -3.41359746	     -0.82190725	     -0.21042389	      0.86816453	     -0.51428691	     28.37720540	      9.50524816	      9.73068691	     26.26753351	      0.45845495	      9.19884487	    -23.26675767	     -7.49999987	     31.33301698	    -24.77161471	    -13.27097934	     28.64250939	      0.49990609	      3.40957807	     11.78255659	     -7.49999987	    -11.46064810	     10.14045124	     -2.64170578	     17.74275278	    -23.05873643	     10.46307226	    117.07300543	     97.46674529	     15.26582727	     -4.30195728	     17.97054713	     92.72619813	    103.09316699
      9.50000000	    -13.47167032	     -3.42918898	     -0.72530337	     -0.20862394	      0.86988464	     -0.51464128	     27.42623223	      9.40032937	      9.69017475	     25.53816881	      0.44572513	      8.86072219	    -23.27775834	     -7.49999987	     30.38758476	    -24.62833591	    -13.44704392	     27.96607588	      0.48810010	      3.36612791	     11.92942705	     -7.49999987	    -11.45387884	     10.24092452	     -2.65615320	     17.28157557	    -23.15593222	     10.75946319	    117.07789709	     96.80522159	     14.96872186	     -4.63059969	     18.76010385	     92.73484738	    102.56978054
      9.51000000	    -13.12601734	     -3.43750696	     -0.60344038	     -0.20695003	      0.87140895	     -0.51502455	     26.56619505	      9.30388592	      9.73701779	     24.83156985	      0.43339265	      8.86328752	    -23.05826654	     -7.49999987	     29.59419017	    -24.40310802	    -13.32185762	     27.33277051	      0.47704684	      3.21530638	     11.69524906	     -7.49999987	    -11.39349848	     10.35334141	     -2.72348145	     16.80829415	    -23.24935914	     11.11224975	    117.08476552	     96.43792545	     14.60568086	     -4.98254305	     19.42581015	     92.80989111	    102.54148109
      9.52000000	    -12.77510536	     -3.41509868	     -0.49152052	     -0.20525311	      0.87286009	     -0.51552080	     25.70543764	      9.16641590	      9.75015459	     24.11852069	      0.42094760	      8.54655410	    -23.11085393	     -7.49999987	     28.76929852	    -24.11416557	    -13.14031174	     26.66866038	      0.46545593	      3.03430728	     11.21806670	     -7.49999987	    -11.34278598	     10.44360337	     -2.68553420	     16.24566498	    -23.37664296	     11.23576542	    116.99515952	     97.56764125	     14.30062600	     -5.23467371	     20.12124346	     92.60420527	    103.84769869
      9.53000000	    -12.46444540	     -3.41785154	     -0.43338284	     -0.20354881	      0.87407876	     -0.51587584	     24.92764073	      9.07931283	      9.69608805	     23.48409909	      0.40987485	      8.50137148	    -22.92131652	     -7.49999987	     28.03523266	    -23.95755127	    -13.16122382	     26.16213217	      0.45661535	      3.05958328	     11.18181065	     -7.49999987	    -11.24577052	     10.54360988	     -2.70071027	     15.77011374	    -23.43054266	     11.56464708	    116.98161729	     96.79871351	     13.88053898	     -5.48514396	     20.75906529	     92.66296895	    103.25992567
      9.54000000	    -12.17651303	     -3.46489455	     -0.39374524	     -0.20200793	      0.87518710	     -0.51614139	     24.19941561	      9.03521067	      9.58078996	     22.87401507	      0.39922688	      8.69879237	    -22.45898831	     -7.49999987	     27.37785607	    -23.86781523	    -13.13685733	     25.71176210	      0.44875491	      2.96497028	     10.95156364	     -7.49999987	    -11.14970245	     10.68476335	     -2.68249705	     15.31150858	    -23.49379323	     11.86690971	    116.90161637	     96.28698005	     13.45423730	     -5.71333649	     21.28111379	     92.72463025	    102.71793951
      9.55000000	    -11.98155488	     -3.48760517	     -0.32950038	     -0.20063203	      0.87609983	     -0.51642045	     23.59924108	      8.96102527	      9.42676386	     22.30119399	      0.38922926	      9.11874274	    -21.88544073	     -7.49999987	     26.88312355	    -23.75704433	    -13.10030925	     25.32120117	      0.44193833	      2.84400035	     10.74661581	     -7.49999987	    -10.99032688	     10.79815628	     -2.67566462	     14.79694191	    -23.58132924	     12.13530134	    116.85896705	     95.65646672	     12.97209165	     -5.84403163	     21.68482682	     92.81394580	    101.85407801
      9.56000000	    -11.62862488	     -3.52719380	     -0.31966781	     -0.19916951	      0.87727657	     -0.51659643	     22.72665112	      8.97386897	      9.58102142	     21.52011638	      0.37559689	      8.24115112	    -22.45151850	     -7.49999987	     26.15356081	    -23.71366048	    -13.24718428	     24.89168731	      0.43444190	      2.83376011	     10.79158295	     -7.49999987	    -10.98057216	     10.91195720	     -2.48791410	     14.22945329	    -23.56751133	     11.95740453	    116.42862168	     98.57565718	     12.66917561	     -5.91743740	     22.00707440	     92.26865566	    104.53316312
      9.57000000	    -11.42439456	     -3.59311367	     -0.29328934	     -0.19771075	      0.87816286	     -0.51690457	     22.09629701	      8.96040419	      9.49068970	     20.89345534	      0.36465959	      8.08083064	    -22.32293420	     -7.49999987	     25.64851960	    -23.67701476	    -13.25904531	     24.54304685	      0.42835698	      2.87347580	     10.86274790	     -7.49999987	    -10.80793156	     11.08706849	     -2.43329799	     13.72641149	    -23.51611677	     12.27507030	    116.27535421	     97.20739402	     12.15053673	     -5.95329907	     22.38461621	     92.27338615	    103.29813042
      9.58000000	    -11.30194649	     -3.62302524	     -0.32772637	     -0.19655718	      0.87889604	     -0.51714123	     21.60755849	      8.92456783	      9.46875825	     20.34375884	      0.35506557	      7.98497765	    -21.94619191	     -7.49999987	     25.23724726	    -23.59801654	    -13.22302040	     24.19780103	      0.42233130	      2.73275021	     10.42532497	     -7.49999987	    -10.59783243	     11.20445662	     -2.35113467	     13.29389657	    -23.51782001	     12.47459532	    115.94202564	     97.68401262	     11.65904013	     -6.07392343	     22.54241614	     92.02696738	    104.47297468
      9.59000000	    -11.14687143	     -3.57614022	     -0.43731029	     -0.19551071	      0.87961747	     -0.51724188	     21.13054724	      8.82763684	      9.37071087	     19.87232233	      0.34683745	      8.30061189	    -21.33834604	     -7.49999987	     24.77038853	    -23.52543299	    -13.41819180	     23.93075028	      0.41767038	      2.65376081	     10.31899631	     -7.49999987	    -10.44603083	     11.21597704	     -2.18635923	     12.88130276	    -23.50361789	     12.67891922	    115.64653601	     97.08329754	     11.17514752	     -6.15185851	     22.80669148	     91.96962454	    103.70157610
      9.60000000	    -10.98241225	     -3.56305764	     -0.54991144	     -0.19441277	      0.88037476	     -0.51737465	     20.57250445	      8.80137629	      9.57324263	     19.26046663	      0.33615856	      7.57793508	    -21.90344280	     -7.49999987	     24.29156010	    -23.49858271	    -13.67410690	     23.65367840	      0.41283457	      2.57613352	     10.32728044	     -7.49999987	    -10.31327970	     11.25350820	     -1.95131251	     12.37063694	    -23.46192083	     12.61504619	    115.43059267	     96.65284814	     10.72554018	     -6.14288633	     23.01929580	     91.72405047	    103.43548248
